<svg xmlns='http://www.w3.org/2000/svg' version='1.1' width='500' height='500'><g stroke='white' stroke-width='0' fill='black'><rect x="0" y="0" width="500" height="500"  /></g><g stroke='white' stroke-width='1' fill='white'><line x1="250" y1="470" x2="249.99999999999997" y2="333.0" /><line x1="249.99999999999997" y1="333.0" x2="219.68195716488123" y2="291.99004659051775" /><line x1="219.68195716488123" y1="291.99004659051775" x2="233.39054550984264" y2="267.57540742487805" /><line x1="233.39054550984264" y1="267.57540742487805" x2="223.88541992168854" y2="257.2966629707427" /><line x1="223.88541992168854" y1="257.2966629707427" x2="223.75168048091365" y2="246.2974760116088" /><line x1="223.88541992168854" y1="257.2966629707427" x2="222.6079972666438" y2="245.36484871806604" /><line x1="222.6079972666438" y1="245.36484871806604" x2="219.7072880628397" y2="234.75419906241507" /><line x1="219.68195716488123" y1="291.99004659051775" x2="233.69294196932225" y2="280.68994460824683" /><line x1="219.68195716488123" y1="291.99004659051775" x2="233.88103286097345" y2="262.20101758021525" /><line x1="233.88103286097345" y1="262.20101758021525" x2="249.75001269573997" y2="234.41297196697045" /><line x1="249.75001269573997" y1="234.41297196697045" x2="256.54038131454524" y2="214.54111010098654" /><line x1="256.54038131454524" y1="214.54111010098654" x2="265.6093165529493" y2="202.59312225191195" /><line x1="265.6093165529493" y1="202.59312225191195" x2="271.0761831511041" y2="189.70462468245182" /><line x1="271.0761831511041" y1="189.70462468245182" x2="281.07331543205675" y2="181.39454970341978" /><line x1="271.0761831511041" y1="189.70462468245182" x2="261.9867732267487" y2="183.5092532466919" /><line x1="265.6093165529493" y1="202.59312225191195" x2="258.62385525647784" y2="192.83590284905443" /><line x1="256.54038131454524" y1="214.54111010098654" x2="263.8141416980213" y2="206.2892975798628" /><line x1="256.54038131454524" y1="214.54111010098654" x2="247.5226569945852" y2="205.17731556622655" /><line x1="247.5226569945852" y1="205.17731556622655" x2="240.02586126351508" y2="197.1275917345284" /><line x1="249.75001269573997" y1="234.41297196697045" x2="251.12069619109045" y2="222.49151120263565" /><line x1="233.88103286097345" y1="262.20101758021525" x2="245.38280534365666" y2="252.57245435631776" /><line x1="245.38280534365666" y1="252.57245435631776" x2="237.14918555938323" y2="243.8427633395623" /><line x1="233.88103286097345" y1="262.20101758021525" x2="242.65344880680206" y2="251.29025599023575" /><line x1="233.88103286097345" y1="262.20101758021525" x2="239.246888748484" y2="250.36008895977045" /><line x1="239.246888748484" y1="250.36008895977045" x2="230.2682998751403" y2="242.39862289858118" /><line x1="230.2682998751403" y1="242.39862289858118" x2="223.46354245924812" y2="233.75597998620418" /><line x1="219.68195716488123" y1="291.99004659051775" x2="211.77048248969626" y2="273.62136213942256" /><line x1="211.77048248969626" y1="273.62136213942256" x2="219.10675382756665" y2="257.18423578299576" /><line x1="219.10675382756665" y1="257.18423578299576" x2="220.931991427562" y2="244.31300788106026" /><line x1="220.931991427562" y1="244.31300788106026" x2="230.03066765288236" y2="238.13125319919283" /><line x1="220.931991427562" y1="244.31300788106026" x2="229.8405349340084" y2="237.86026795187112" /><line x1="249.99999999999997" y1="333.0" x2="211.21296589714584" y2="265.3275093889398" /><line x1="211.21296589714584" y1="265.3275093889398" x2="174.1184904936032" y2="226.08467699197882" /><line x1="174.1184904936032" y1="226.08467699197882" x2="158.53249186317538" y2="213.55165474304374" /><line x1="158.53249186317538" y1="213.55165474304374" x2="164.8941937713303" y2="196.7133428077048" /><line x1="174.1184904936032" y1="226.08467699197882" x2="183.71525309203955" y2="197.66105745418503" /><line x1="183.71525309203955" y1="197.66105745418503" x2="179.8683276826704" y2="177.01641735330776" /><line x1="183.71525309203955" y1="197.66105745418503" x2="179.1915137753834" y2="175.11031949297987" /><line x1="179.1915137753834" y1="175.11031949297987" x2="180.21709715624104" y2="156.13801919151646" /><line x1="180.21709715624104" y1="156.13801919151646" x2="187.055219142865" y2="143.921633158976" /><line x1="187.055219142865" y1="143.921633158976" x2="179.64429716240764" y2="135.79278112442807" /><line x1="187.055219142865" y1="143.921633158976" x2="188.37111972742144" y2="133.00062562067788" /><line x1="187.055219142865" y1="143.921633158976" x2="195.43058570272962" y2="133.9791367426879" /><line x1="195.43058570272962" y1="133.9791367426879" x2="204.81637601375246" y2="128.24267962722809" /><line x1="180.21709715624104" y1="156.13801919151646" x2="190.58138567352313" y2="150.0897530324809" /><line x1="190.58138567352313" y1="150.0897530324809" x2="194.81070103762906" y2="139.93530122300652" /><line x1="180.21709715624104" y1="156.13801919151646" x2="167.52759402132818" y2="144.82534885295198" /><line x1="167.52759402132818" y1="144.82534885295198" x2="176.34679709833247" y2="135.27434591679085" /><line x1="167.52759402132818" y1="144.82534885295198" x2="169.46508564082828" y2="128.94309063113835" /><line x1="167.52759402132818" y1="144.82534885295198" x2="163.12924601531674" y2="134.74296149588147" /><line x1="174.1184904936032" y1="226.08467699197882" x2="144.4599598168462" y2="185.8308379440586" /><line x1="144.4599598168462" y1="185.8308379440586" x2="183.83727013378518" y2="160.17099709880992" /><line x1="183.83727013378518" y1="160.17099709880992" x2="184.76739979898645" y2="124.18301495468418" /><line x1="184.76739979898645" y1="124.18301495468418" x2="184.4361839213324" y2="113.18800262897986" /><line x1="183.83727013378518" y1="160.17099709880992" x2="206.30296771484842" y2="123.50640338503464" /><line x1="206.30296771484842" y1="123.50640338503464" x2="233.31239609209825" y2="94.00232267178056" /><line x1="233.31239609209825" y1="94.00232267178056" x2="237.10580280699506" y2="75.38485599407772" /><line x1="237.10580280699506" y1="75.38485599407772" x2="247.85133489658404" y2="62.21164301805651" /><line x1="237.10580280699506" y1="75.38485599407772" x2="239.63900616055113" y2="58.57465430672334" /><line x1="233.31239609209825" y1="94.00232267178056" x2="228.81058877613978" y2="71.44719618377383" /><line x1="228.81058877613978" y1="71.44719618377383" x2="215.67071718633207" y2="56.36927276563153" /><line x1="228.81058877613978" y1="71.44719618377383" x2="238.28781809448958" y2="57.33400645049911" /><line x1="238.28781809448958" y1="57.33400645049911" x2="236.5988313928455" y2="45.45346252685363" /><line x1="233.31239609209825" y1="94.00232267178056" x2="245.69832713402982" y2="79.59438346367327" /><line x1="144.4599598168462" y1="185.8308379440586" x2="156.7298495767986" y2="157.36243782605732" /><line x1="156.7298495767986" y1="157.36243782605732" x2="172.19403498470933" y2="148.15054498746215" /><line x1="172.19403498470933" y1="148.15054498746215" x2="164.3463743970654" y2="140.44248276008358" /><line x1="156.7298495767986" y1="157.36243782605732" x2="171.44960999308313" y2="141.01224965322018" /><line x1="171.44960999308313" y1="141.01224965322018" x2="173.15794775106278" y2="130.1457146901024" /><line x1="171.44960999308313" y1="141.01224965322018" x2="172.25821339231342" y2="126.03406015839961" /><line x1="172.25821339231342" y1="126.03406015839961" x2="170.77480083590237" y2="114.12610117343993" /><line x1="156.7298495767986" y1="157.36243782605732" x2="171.34069166018685" y2="139.59946246678004" /><line x1="171.34069166018685" y1="139.59946246678004" x2="166.32791268543056" y2="125.46185139028478" /><line x1="166.32791268543056" y1="125.46185139028478" x2="175.02542618428632" y2="114.49128809858358" /><line x1="175.02542618428632" y1="114.49128809858358" x2="164.23748268071623" y2="107.23730471262382" /><line x1="164.23748268071623" y1="107.23730471262382" x2="155.287746125396" y2="100.84182071292804" /><line x1="175.02542618428632" y1="114.49128809858358" x2="180.1000852520397" y2="102.5226693250547" /><line x1="180.1000852520397" y1="102.5226693250547" x2="174.53798064876005" y2="93.03251693522577" /><line x1="171.34069166018685" y1="139.59946246678004" x2="164.50819490159066" y2="122.94662522972723" /><line x1="164.50819490159066" y1="122.94662522972723" x2="160.5879544729197" y2="111.60503297019798" /><line x1="164.50819490159066" y1="122.94662522972723" x2="160.24249653905537" y2="112.80740349036954" /><line x1="171.34069166018685" y1="139.59946246678004" x2="172.66802118515162" y2="120.645882426794" /><line x1="172.66802118515162" y1="120.645882426794" x2="171.77869763919597" y2="108.67888181550427" /><line x1="144.4599598168462" y1="185.8308379440586" x2="141.71120185871928" y2="161.9887673609982" /><line x1="141.71120185871928" y1="161.9887673609982" x2="145.33406960740834" y2="146.40432546289006" /><line x1="145.33406960740834" y1="146.40432546289006" x2="148.26572686794475" y2="134.76794347763604" /><line x1="145.33406960740834" y1="146.40432546289006" x2="135.6907985236634" y2="134.91488149003354" /><line x1="135.6907985236634" y1="134.91488149003354" x2="137.20436249051824" y2="124.01950980668842" /><line x1="211.21296589714584" y1="265.3275093889398" x2="233.58560547723798" y2="233.38279154358554" /><line x1="233.58560547723798" y1="233.38279154358554" x2="255.77776672228364" y2="202.53626857463664" /><line x1="255.77776672228364" y1="202.53626857463664" x2="277.9768435311487" y2="189.0010925937301" /><line x1="277.9768435311487" y1="189.0010925937301" x2="265.7882571055151" y2="180.25818913178682" /><line x1="255.77776672228364" y1="202.53626857463664" x2="246.6247287875984" y2="188.21070064292053" /><line x1="246.6247287875984" y1="188.21070064292053" x2="253.38606970306773" y2="178.29685834919806" /><line x1="246.6247287875984" y1="188.21070064292053" x2="247.3261240831212" y2="172.22608164091054" /><line x1="247.3261240831212" y1="172.22608164091054" x2="250.64548902401427" y2="159.65699987694822" /><line x1="233.58560547723798" y1="233.38279154358554" x2="240.39907685591464" y2="206.22442988880317" /><line x1="240.39907685591464" y1="206.22442988880317" x2="242.6594190417891" y2="195.4591684798658" /><line x1="240.39907685591464" y1="206.22442988880317" x2="230.70928753731732" y2="191.05511932565636" /><line x1="230.70928753731732" y1="191.05511932565636" x2="228.79934978690812" y2="174.16275010788345" /><line x1="228.79934978690812" y1="174.16275010788345" x2="235.59443802280921" y2="161.9223752824821" /><line x1="235.59443802280921" y1="161.9223752824821" x2="244.23495185642253" y2="152.20941895131617" /><line x1="228.79934978690812" y1="174.16275010788345" x2="240.2007582717984" y2="166.0382264565749" /><line x1="240.2007582717984" y1="166.0382264565749" x2="233.2908105204766" y2="156.2273843890456" /><line x1="240.39907685591464" y1="206.22442988880317" x2="225.56194614081437" y2="194.35600319681794" /><line x1="225.56194614081437" y1="194.35600319681794" x2="234.69316457097943" y2="183.74370608541864" /><line x1="234.69316457097943" y1="183.74370608541864" x2="236.4174048873083" y2="172.87968310442554" /><line x1="225.56194614081437" y1="194.35600319681794" x2="216.5498790521506" y2="188.0486545629288" /><line x1="240.39907685591464" y1="206.22442988880317" x2="241.95282419901667" y2="195.33471597181696" /><line x1="211.21296589714584" y1="265.3275093889398" x2="208.54170481340736" y2="213.3961665965326" /><line x1="208.54170481340736" y1="213.3961665965326" x2="231.14621282170557" y2="186.67471046662115" /><line x1="231.14621282170557" y1="186.67471046662115" x2="227.7191874276654" y2="171.0460349965564" /><line x1="227.7191874276654" y1="171.0460349965564" x2="232.8428215433002" y2="156.94822050461818" /><line x1="232.8428215433002" y1="156.94822050461818" x2="227.18568159182215" y2="145.24365867730526" /><line x1="232.8428215433002" y1="156.94822050461818" x2="225.02564962561095" y2="147.8437258338915" /><line x1="225.02564962561095" y1="147.8437258338915" x2="234.46255797838654" y2="142.19175620009884" /><line x1="232.8428215433002" y1="156.94822050461818" x2="229.1596822705555" y2="145.5274287151858" /><line x1="231.14621282170557" y1="186.67471046662115" x2="223.31664428086208" y2="156.67974661493042" /><line x1="223.31664428086208" y1="156.67974661493042" x2="242.19358732933867" y2="143.5396925380032" /><line x1="242.19358732933867" y1="143.5396925380032" x2="236.84999852231113" y2="123.23092451378741" /><line x1="236.84999852231113" y1="123.23092451378741" x2="246.4475826699351" y2="109.19930384726149" /><line x1="246.4475826699351" y1="109.19930384726149" x2="248.76135722526345" y2="96.40686673359488" /><line x1="242.19358732933867" y1="143.5396925380032" x2="227.60277830050498" y2="134.81568589632155" /><line x1="227.60277830050498" y1="134.81568589632155" x2="222.1569768672793" y2="119.77097763228808" /><line x1="222.1569768672793" y1="119.77097763228808" x2="222.51384257091394" y2="106.77587675274238" /><line x1="222.51384257091394" y1="106.77587675274238" x2="219.4576704737813" y2="95.17157530402484" /><line x1="222.1569768672793" y1="119.77097763228808" x2="230.25915407277824" y2="112.33090205937263" /><line x1="242.19358732933867" y1="143.5396925380032" x2="242.55711849881047" y2="129.54441315212375" /><line x1="242.55711849881047" y1="129.54441315212375" x2="253.60932781130288" y2="122.69980437492865" /><line x1="231.14621282170557" y1="186.67471046662115" x2="211.72185385775276" y2="162.51494476329725" /><line x1="211.72185385775276" y1="162.51494476329725" x2="223.4090998715412" y2="139.28977994981992" /><line x1="223.4090998715412" y1="139.28977994981992" x2="210.74305032918141" y2="131.25415993699653" /><line x1="210.74305032918141" y1="131.25415993699653" x2="206.816489017273" y2="117.81607539105681" /><line x1="206.816489017273" y1="117.81607539105681" x2="207.11918542379394" y2="105.81989371164401" /><line x1="211.72185385775276" y1="162.51494476329725" x2="211.66351233810133" y2="146.5150511303044" /><line x1="231.14621282170557" y1="186.67471046662115" x2="223.367458763998" y2="167.1685323348164" /><line x1="223.367458763998" y1="167.1685323348164" x2="228.89274225275142" y2="151.09149148866226" /><line x1="228.89274225275142" y1="151.09149148866226" x2="223.3062128043836" y2="137.1706190762551" /><line x1="223.3062128043836" y1="137.1706190762551" x2="213.50259028883065" y2="130.2504322599514" /><line x1="223.3062128043836" y1="137.1706190762551" x2="213.85390191522333" y2="128.24572026144142" /><line x1="223.3062128043836" y1="137.1706190762551" x2="217.15814382444225" y2="124.5928113253836" /><line x1="208.54170481340736" y1="213.3961665965326" x2="211.94458277037867" y2="188.6288409110663" /><line x1="211.94458277037867" y1="188.6288409110663" x2="192.78540580045637" y2="175.90382861892297" /><line x1="192.78540580045637" y1="175.90382861892297" x2="192.67262768877018" y2="164.90440676604703" /><line x1="211.21296589714584" y1="265.3275093889398" x2="184.25945751439633" y2="244.60292529513825" /><line x1="184.25945751439633" y1="244.60292529513825" x2="191.19418826089486" y2="230.18385772911415" /><line x1="191.19418826089486" y1="230.18385772911415" x2="199.32229731978902" y2="222.7721208795813" /><line x1="191.19418826089486" y1="230.18385772911415" x2="185.4446554896687" y2="217.4189498597797" /><line x1="185.4446554896687" y1="217.4189498597797" x2="179.60172941085517" y2="205.80601677474382" /><line x1="179.60172941085517" y1="205.80601677474382" x2="170.2035211326769" y2="198.34453695101035" /><line x1="184.25945751439633" y1="244.60292529513825" x2="190.55802224326814" y2="234.3888133730859" /><line x1="249.99999999999997" y1="333.0" x2="208.15145278046762" y2="239.9801145151502" /><line x1="208.15145278046762" y1="239.9801145151502" x2="210.07462290940495" y2="215.0541959432066" /><line x1="210.07462290940495" y1="215.0541959432066" x2="194.86469100557622" y2="202.06735754885932" /><line x1="194.86469100557622" y1="202.06735754885932" x2="204.30101516933837" y2="193.12555760274117" /><line x1="194.86469100557622" y1="202.06735754885932" x2="190.33162057158953" y2="188.82155548025978" /><line x1="190.33162057158953" y1="188.82155548025978" x2="187.5123886707636" y2="177.157425358842" /><line x1="187.5123886707636" y1="177.157425358842" x2="196.4779367455331" y2="170.78412576451905" /><line x1="210.07462290940495" y1="215.0541959432066" x2="198.45334906075874" y2="204.05665102923732" /><line x1="198.45334906075874" y1="204.05665102923732" x2="209.08464483442867" y2="194.9475594075251" /><line x1="210.07462290940495" y1="215.0541959432066" x2="199.57606975507036" y2="198.0312590148851" /><line x1="199.57606975507036" y1="198.0312590148851" x2="207.7464013312448" y2="180.87766808075804" /><line x1="207.7464013312448" y1="180.87766808075804" x2="201.06374209859345" y2="164.1641386635386" /><line x1="201.06374209859345" y1="164.1641386635386" x2="189.21467776951388" y2="151.97399204730243" /><line x1="201.06374209859345" y1="164.1641386635386" x2="202.54052908381476" y2="151.24829180008126" /><line x1="202.54052908381476" y1="151.24829180008126" x2="194.0339360793951" y2="144.27420580569043" /><line x1="199.57606975507036" y1="198.0312590148851" x2="188.33832808396102" y2="185.27535206424406" /><line x1="188.33832808396102" y1="185.27535206424406" x2="197.12391132131478" y2="177.10139786939268" /><line x1="197.12391132131478" y1="177.10139786939268" x2="206.0131506889792" y2="170.62209054033622" /><line x1="208.15145278046762" y1="239.9801145151502" x2="209.71735499960036" y2="211.02242209603443" /></g></svg>